:SAMPLES-PER-SECOND 30
:FULLY-SPECIFIED
:DEGREES
109
root  44.7129 38.2262 7.9547 -0.018426 79.5808 -4.48199
RightUpLeg  10.7794 -6.95094 -0.887289
RightLeg  16.2271 12.0207 1.39808
RightFoot  -6.36793 -0.748331 12.5625
RightToes  -1.74624e-010 -1.59028e-015 9.93923e-017
Spine  -0.741336 5.81689 13.1423
Spine1  16.6682 9.99098 -12.999
HEad  -22.9992 -8.88647 5.10655
LeftShoulder1  9.93923e-017 0 1.22299e-017
LeftArm  -10.1243 59.2742 -57.3339
LeftForeArm  0.944739 -0.973637 -3.14709
LeftHand  1.26365 11.1615 -8.65159
RightShoulder  1.98785e-016 -4.96962e-017 1.55301e-017
RightArm  12.8762 -2.08957 76.4331
RightForeArm  -35.654 34.2348 -30.6541
RightHand  3.69938 -22.1507 -11.2734
LeftUpLeg  -28.1697 -2.17647 -5.68576
LeftLeg  16.8153 9.43556 5.64484
LeftFoot  1.0161 -0.610761 4.90619
LeftToes  4.87492e-010 -9.21916e-011 1.24689e-011
110
root  46.1289 38.0691 8.06568 1.89633 79.8299 -2.76778
RightUpLeg  8.13284 -7.56769 -2.21751
RightLeg  24.5038 13.411 2.00286
RightFoot  -0.341463 -1.64226 14.6355
RightToes  -1.74624e-010 -1.59028e-015 9.93923e-017
Spine  -0.56617 4.79188 10.3494
Spine1  16.6663 8.69378 -12.5263
HEad  -24.726 -7.25628 5.65567
LeftShoulder1  9.93923e-017 0 1.22299e-017
LeftArm  -13.0906 56.9399 -59.9873
LeftForeArm  1.29224 -0.899427 -2.88993
LeftHand  1.28997 11.5367 -8.60139
RightShoulder  1.98785e-016 -4.96962e-017 1.55301e-017
RightArm  13.5861 -5.60837 78.5855
RightForeArm  -34.9561 34.9707 -31.3243
RightHand  3.69908 -22.1192 -11.3145
LeftUpLeg  -28.2122 -1.26664 -6.51055
LeftLeg  20.5664 7.61062 6.69212
LeftFoot  -0.118926 -0.768793 6.57714
LeftToes  4.87492e-010 -9.21916e-011 1.24689e-011
111
root  47.4874 37.9756 8.17137 7.34606 81.0112 2.86643
RightUpLeg  4.17119 -6.85229 -3.31412
RightLeg  34.2655 11.9765 1.58504
RightFoot  9.21108 -2.9308 14.8404
RightToes  -1.74624e-010 -1.59028e-015 9.93923e-017
Spine  0.0358138 3.61702 6.91486
Spine1  16.5434 7.07996 -11.676
HEad  -25.924 -6.07057 5.93473
LeftShoulder1  9.93923e-017 0 1.22299e-017
LeftArm  -15.7789 52.2774 -63.6185
LeftForeArm  3.33773 -0.922505 -2.88408
LeftHand  1.26036 11.5608 -9.40846
RightShoulder  1.98785e-016 -4.96962e-017 1.55301e-017
RightArm  14.9741 -10.2574 80.4631
RightForeArm  -34.3082 34.368 -30.8571
RightHand  3.6123 -22.0743 -10.7823
LeftUpLeg  -27.2307 0.0635079 -8.03337
LeftLeg  23.4856 4.88304 6.7003
LeftFoot  -3.59203 -0.540872 6.13922
LeftToes  4.87492e-010 -9.21916e-011 1.24689e-011
112
root  48.8072 37.9225 8.24618 17.1219 82.1981 12.7457
RightUpLeg  -0.802596 -5.07861 -4.08305
RightLeg  43.3586 9.95562 -0.116321
RightFoot  17.294 -3.84472 14.1013
RightToes  -1.74624e-010 -1.59028e-015 9.93923e-017
Spine  0.307983 2.69563 3.59463
Spine1  16.5195 5.63735 -10.9902
HEad  -25.7712 -5.34237 5.60356
LeftShoulder1  9.93923e-017 0 1.22299e-017
LeftArm  -17.3049 46.33 -67.1356
LeftForeArm  4.77102 -0.976288 -3.2968
LeftHand  1.19572 11.0349 -10.3996
RightShoulder  1.98785e-016 -4.96962e-017 1.55301e-017
RightArm  17.2849 -15.6642 82.0076
RightForeArm  -34.369 32.2649 -29.144
RightHand  3.42105 -22.0494 -9.49696
LeftUpLeg  -25.484 0.919538 -9.74089
LeftLeg  24.9403 2.91075 6.30676
LeftFoot  -6.7429 -0.335015 5.42798
LeftToes  4.87492e-010 -9.21916e-011 1.24689e-011
